<?xml version="1.0" encoding="iso-8859-1"?>
<!-- Generator: Adobe Illustrator 19.0.0, SVG Export Plug-In . SVG Version: 6.00 Build 0)  -->
<svg version="1.1" id="Capa_1" xmlns="http://www.w3.org/2000/svg" xmlns:xlink="http://www.w3.org/1999/xlink" x="0px" y="0px"
	 viewBox="0 0 512 512" style="enable-background:new 0 0 512 512;" xml:space="preserve">
<path style="fill:#F9B548;" d="M416.672,256.447c22.736-8.324,38.961-30.154,38.961-55.773c0-32.793-26.584-59.376-59.376-59.376
	c-28.694,0-52.633,20.353-58.17,47.41l25.551,67.263L416.672,256.447z"/>
<path style="fill:#EDA43A;" d="M455.629,200.672c0,25.626-16.224,47.455-38.957,55.78l-24.519-0.224
	c20.184-9.473,34.155-29.981,34.155-53.749c0-28.987-20.773-53.13-48.237-58.339c5.726-1.848,11.838-2.843,18.184-2.843
	C429.048,141.298,455.629,167.879,455.629,200.672z"/>
<path style="fill:#A6E6FD;" d="M374.477,246.025c-3.723,0-7.392,0.23-10.997,0.667c-13.918-68.639-74.593-120.306-147.338-120.306
	c-83.032,0-150.342,67.311-150.342,150.342c0,3.013,0.099,6.003,0.274,8.972C29.18,288.119,0,318.792,0,356.298
	c0,39.086,31.685,70.771,70.771,70.771c0.831,0,301.805,0,303.706,0c49.994,0,90.522-40.528,90.522-90.523
	C465,286.553,424.471,246.025,374.477,246.025z"/>
<path style="fill:#8CD9ED;" d="M465,336.548c0,48.216-37.698,87.63-85.223,90.361c16.092-16.326,26.012-38.754,26.012-63.486
	c0-50.003-40.53-90.523-90.523-90.523c-2.236,0-4.449,0.08-6.641,0.239c-2.495,0.181-4.74-1.517-5.31-3.953
	c-15.561-66.443-75.191-115.928-146.383-115.928c-10.64,0-21.017,1.107-31.027,3.208c25.139-18.895,56.379-30.083,90.239-30.083
	c72.746,0,133.419,51.668,147.339,120.312c3.604-0.437,7.269-0.67,10.996-0.67C424.469,246.025,465,286.555,465,336.548z"/>
<g>
	<path style="fill:#F9B548;" d="M396.257,125.542c4.206,0,7.615-3.409,7.615-7.615V92.546c0-4.206-3.409-7.615-7.615-7.615
		s-7.615,3.409-7.615,7.615v25.382C388.642,122.133,392.051,125.542,396.257,125.542z"/>
	<path style="fill:#F9B548;" d="M332.362,147.549c1.487,1.486,3.437,2.23,5.385,2.23s3.898-0.744,5.385-2.23
		c2.974-2.975,2.974-7.795,0-10.77l-17.948-17.948c-2.974-2.973-7.795-2.973-10.77,0c-2.974,2.974-2.974,7.795,0,10.77
		L332.362,147.549z"/>
	<path style="fill:#F9B548;" d="M460.153,253.799c-2.974-2.973-7.795-2.973-10.77,0c-2.974,2.975-2.974,7.795,0,10.77l17.948,17.948
		c1.487,1.486,3.436,2.23,5.385,2.23s3.898-0.744,5.385-2.23c2.974-2.975,2.974-7.795,0-10.77L460.153,253.799z"/>
	<path style="fill:#F9B548;" d="M504.385,193.06h-25.382c-4.206,0-7.615,3.409-7.615,7.615s3.409,7.615,7.615,7.615h25.382
		c4.206,0,7.615-3.409,7.615-7.615S508.591,193.06,504.385,193.06z"/>
	<path style="fill:#F9B548;" d="M454.768,149.779c1.948,0,3.897-0.744,5.385-2.23l17.948-17.948c2.974-2.974,2.974-7.795,0-10.77
		c-2.974-2.973-7.795-2.973-10.77,0l-17.948,17.948c-2.974,2.975-2.974,7.795,0,10.77
		C450.87,149.036,452.82,149.779,454.768,149.779z"/>
</g>
<g>
</g>
<g>
</g>
<g>
</g>
<g>
</g>
<g>
</g>
<g>
</g>
<g>
</g>
<g>
</g>
<g>
</g>
<g>
</g>
<g>
</g>
<g>
</g>
<g>
</g>
<g>
</g>
<g>
</g>
</svg>
