<?xml version="1.0" encoding="iso-8859-1"?>
<!-- Generator: Adobe Illustrator 19.0.0, SVG Export Plug-In . SVG Version: 6.00 Build 0)  -->
<svg version="1.1" id="Capa_1" xmlns="http://www.w3.org/2000/svg" xmlns:xlink="http://www.w3.org/1999/xlink" x="0px" y="0px"
	 viewBox="0 0 348 348" style="enable-background:new 0 0 348 348;" xml:space="preserve">
<g>
	<path style="fill:#263645;" d="M161.6,32.8c-64.4,0-116.4,52-116.4,116.4s52,116.4,116.4,116.4S278,213.6,278,149.2
		C278.4,84.8,226,32.8,161.6,32.8z"/>
	<path style="fill:#263645;" d="M300.4,348l35.2-27.6c0,0-11.6-58-75.6-60l-55.6,25.2C272,288.4,297.2,326.4,300.4,348z"/>
</g>
<path style="fill:#E2E7ED;" d="M161.6,0C79.2,0,12.4,66.8,12.4,149.2s66.8,149.2,149.2,149.2s149.2-66.8,149.2-149.2S244,0,161.6,0z
	 M39.6,112C45.2,93.2,65.2,82.8,84,88.4c18.8,5.6,29.2,25.6,23.6,44.4C102,151.6,82,162,63.2,156.4C44.4,150.4,34,130.4,39.6,112z
	 M136,244.8c-11.6,16-34,19.2-49.6,7.6c-16-11.6-19.2-34-7.6-49.6c11.6-16,34-19.2,49.6-7.6C144,206.4,147.6,228.8,136,244.8z
	 M126.4,57.2c0-19.6,16-35.6,35.6-35.6s35.6,16,35.6,35.6s-16,35.6-35.6,35.6C142,92.8,126.4,76.8,126.4,57.2z M235.2,253.6
	c-16,11.2-38.4,7.6-49.6-8.8c-11.2-16-7.6-38.4,8.8-49.6c16-11.2,38.4-7.6,49.6,8.8S251.2,242.4,235.2,253.6z M260,157.2
	c-18.8,5.6-38.4-5.2-44-24s5.2-38.4,24-44c18.8-5.6,38.4,5.2,44,24S278.8,151.6,260,157.2z"/>
<g>
	<path style="fill:#364C63;" d="M161.6,92.8c19.2,0,34.8-15.2,35.6-34.4c-11.2-4.4-22.8-6.8-35.6-6.8c-12.4,0-24.4,2.4-35.6,6.8
		C126.8,77.2,142.4,92.8,161.6,92.8z"/>
	<path style="fill:#364C63;" d="M238.8,89.6c-18,6-28.4,25.2-22.8,43.6s24.4,29.2,43.2,24.4c0.4-2.8,0.4-5.6,0.4-8
		C259.6,126.8,251.6,106,238.8,89.6z"/>
	<path style="fill:#364C63;" d="M194.4,195.6c-15.6,11.2-19.6,32.4-9.2,48.4c24-6,44.8-20.8,58-40.8
		C231.6,188,210,184.4,194.4,195.6z"/>
	<path style="fill:#364C63;" d="M128.4,194.8c-15.6-11.2-37.2-8.4-48.8,6.8c12.8,20.4,33.2,35.6,57.2,42
		C147.2,228,143.6,206.4,128.4,194.8z"/>
	<path style="fill:#364C63;" d="M107.6,132.8c5.6-18.4-4.4-37.6-22.4-44C72,105.6,64,126.4,64,149.2c0,2.4,0,4.8,0.4,7.2
		C82.8,161.6,102,151.2,107.6,132.8z"/>
</g>
<circle style="fill:#263645;" cx="161.6" cy="149.2" r="22.8"/>
<path style="fill:#BFC4C8;" d="M161.6,0C79.2,0,12.4,66.8,12.4,149.2s66.8,149.2,149.2,149.2s149.2-66.8,149.2-149.2S244,0,161.6,0z
	 M161.6,285.6c-75.2,0-136.4-61.2-136.4-136.4S86.4,12.8,161.6,12.8S298,74,298,149.2S237.2,285.6,161.6,285.6z"/>
<g>
</g>
<g>
</g>
<g>
</g>
<g>
</g>
<g>
</g>
<g>
</g>
<g>
</g>
<g>
</g>
<g>
</g>
<g>
</g>
<g>
</g>
<g>
</g>
<g>
</g>
<g>
</g>
<g>
</g>
</svg>
