<?xml version="1.0" encoding="iso-8859-1"?>
<!-- Generator: Adobe Illustrator 19.0.0, SVG Export Plug-In . SVG Version: 6.00 Build 0)  -->
<svg xmlns="http://www.w3.org/2000/svg" xmlns:xlink="http://www.w3.org/1999/xlink" version="1.1" id="Layer_1" x="0px" y="0px" viewBox="0 0 378.439 378.439" style="enable-background:new 0 0 378.439 378.439;" xml:space="preserve" width="512" height="512">
<g>
	<g>
		<path style="fill:#A77F73;" d="M15.788,362.65c28.07,28.07,188.281,25.862,280.504-66.359    c92.221-92.223,94.429-252.433,66.359-280.504c-28.069-28.068-188.28-25.86-280.502,66.361    C-10.073,174.371-12.282,334.582,15.788,362.65z"/>
		<path style="fill:#E8E8E8;" d="M13.548,202.939c-5.914,20.297-9.726,40.394-11.75,59.194l114.51,114.509    c18.799-2.025,38.895-5.836,59.192-11.75L13.548,202.939z"/>
		<path style="fill:#E8E8E8;" d="M202.938,13.547c20.299-5.914,40.394-9.725,59.195-11.75l114.509,114.509    c-2.026,18.801-5.835,38.896-11.751,59.194L202.938,13.547z"/>
	</g>
	<path style="fill:#FFFFFF;" d="M247.267,161.182c8.286-8.287,8.286-21.722,0-30.009c-8.287-8.287-21.724-8.286-30.008,0   l-86.086,86.085c-8.284,8.287-8.286,21.721,0,30.009c8.287,8.287,21.724,8.286,30.01,0L247.267,161.182z"/>
	<path style="fill:#454F58;" d="M219.745,227.245c-1.919,0-3.839-0.732-5.304-2.197l-61.051-61.05   c-2.929-2.929-2.929-7.678,0-10.606c2.93-2.929,7.678-2.929,10.607,0l61.051,61.05c2.929,2.929,2.929,7.678,0,10.606   C223.584,226.512,221.664,227.245,219.745,227.245z"/>
	<path style="fill:#454F58;" d="M247.783,199.207c-1.92,0-3.839-0.732-5.304-2.197l-61.051-61.052   c-2.929-2.929-2.929-7.678,0-10.607c2.931-2.93,7.679-2.929,10.607,0l61.051,61.052c2.929,2.929,2.929,7.678,0,10.606   C251.622,198.475,249.702,199.207,247.783,199.207z"/>
	<path style="fill:#454F58;" d="M191.707,255.283c-1.919,0-3.839-0.732-5.304-2.197l-61.052-61.051   c-2.929-2.929-2.929-7.678,0-10.606c2.93-2.929,7.678-2.929,10.607,0l61.052,61.051c2.929,2.929,2.929,7.678,0,10.606   C195.546,254.551,193.626,255.283,191.707,255.283z"/>
	<circle style="fill:#7C5C5B;" cx="194.141" cy="325.044" r="9.216"/>
	<circle style="fill:#7C5C5B;" cx="248.309" cy="296.943" r="9.216"/>
	<circle style="fill:#7C5C5B;" cx="267.261" cy="261.698" r="9.216"/>
	<circle style="fill:#7C5C5B;" cx="190.549" cy="54.549" r="9.216"/>
	<circle style="fill:#7C5C5B;" cx="327.774" cy="33.691" r="9.216"/>
</g>















</svg>
